<?xml version="1.0" encoding="UTF-8"?>
<svg width="16px" height="16px" viewBox="0 0 16 16" version="1.1" xmlns="http://www.w3.org/2000/svg" xmlns:xlink="http://www.w3.org/1999/xlink">
    <!-- Generator: Sketch 46.2 (44496) - http://www.bohemiancoding.com/sketch -->
    <title>mask-icon</title>
    <desc>Created with Sketch.</desc>
    <defs></defs>
    <g id="Page-1" stroke="none" stroke-width="1" fill="none" fill-rule="evenodd">
        <g id="mask-icon" transform="translate(0.000000, 2.000000)" fill="#1A1919">
            <path d="M7.12416216,2.54059459 L7.47816216,1.88578378 C4.81027027,1.96978378 2.42421622,2.58745946 0.72135135,3.53383784 C2.53854054,2.97518919 4.73664865,2.61794595 7.12416216,2.54059459" id="Fill-64-path"></path>
            <path d="M3.33281081,9.5550811 L3.60248649,9.0559459 C2.51454054,9.3363243 1.53897297,9.7144865 0.72135135,10.1687027 C1.52275676,9.9223784 2.39972973,9.7164324 3.33281081,9.5550811" id="Fill-65-path"></path>
            <path d="M4.30951351,7.7477838 L4.62151351,7.1708108 C3.12005405,7.4557297 1.78659459,7.9180541 0.72135135,8.5099459 C1.79664865,8.1794595 3.00735135,7.9212973 4.30951351,7.7477838" id="Fill-66-path"></path>
            <path d="M2.33113514,11.4081081 L2.53286486,11.034973 C1.86945946,11.2623243 1.26037838,11.5279459 0.72135135,11.8274595 C1.22940541,11.6712973 1.76778378,11.5311892 2.33113514,11.4081081" id="Fill-67-path"></path>
            <path d="M6.20308108,4.24475676 L6.554,3.59545946 C4.26135135,3.77756757 2.22508108,4.35697297 0.72135135,5.19259459 C2.30210811,4.70659459 4.172,4.37432432 6.20308108,4.24475676" id="Fill-68-path"></path>
            <path d="M5.26545946,5.97924324 L5.60308108,5.35491892 C3.69962162,5.60513514 2.01345946,6.1332973 0.72135135,6.85135135 C2.05545946,6.44108108 3.59664865,6.14140541 5.26545946,5.97924324" id="Fill-69-path"></path>
            <path d="M8.30810811,0.86886486 L8.30810811,0.86886486 L8.168,0.60956757 L8.02902703,0.86659459 C5.29254054,0.87324324 2.76589189,1.24654054 0.72135135,1.87508108 C2.55621622,0.85540541 5.18324324,0.21632432 8.10232432,0.21632432 C11.0214054,0.21632432 13.6485946,0.85540541 15.4834595,1.87508108 C13.711027,1.33021622 11.5751892,0.97913514 9.2554595,0.89075676 L9.2663243,0.91427027 C11.6945405,1.10140541 13.9166486,1.83372973 15.4834595,2.70437838 C13.8105946,2.19016216 11.8130811,1.84978378 9.6436757,1.7387027 L9.6572973,1.76854054 C11.9257838,1.99297297 14.0024324,2.71086486 15.4834595,3.53383784 C13.9106486,3.05027027 12.0517838,2.71881081 10.0325405,2.58810811 L10.0489189,2.62394595 C12.1560541,2.88162162 14.0903243,3.58897297 15.4834595,4.36313514 C14.0139459,3.91151351 12.2932432,3.59481081 10.4265946,3.44854054 L10.4458919,3.4907027 C12.3890811,3.77594595 14.1804865,4.46854054 15.4834595,5.19259459 C14.1170811,4.77243243 12.5351892,4.46659459 10.8198378,4.30751351 L10.8414054,4.35454054 C12.62,4.66362162 14.2732432,5.34940541 15.4834595,6.02189189 C14.2247568,5.63497297 12.7805405,5.34794595 11.2198919,5.18091892 L11.2432432,5.232 C12.8551351,5.55810811 14.3687568,6.23189189 15.4834595,6.85118919 C14.3319459,6.49735135 13.0271892,6.22491892 11.618973,6.05254054 L11.6439459,6.10718919 C13.0881622,6.44610811 14.4678378,7.1163243 15.4834595,7.6806486 C14.4443243,7.3611892 13.2772432,7.1108108 12.0245405,6.93827027 L12.0501622,6.99405405 C13.3435676,7.3373514 14.6608108,7.9967027 15.4834595,8.5099459 C14.5578378,8.2255135 13.5292432,7.9968649 12.4315676,7.8270811 L12.4550811,7.8786486 C13.5835676,8.2217838 14.7949189,8.8829189 15.4834595,9.3394054 C14.6754054,9.090973 13.7856216,8.8877838 12.8432973,8.7262703 L12.8668108,8.7778378 C13.825027,9.1122162 14.9191351,9.7736757 15.4834595,10.1687027 C14.7931351,9.9565946 14.0447568,9.7756216 13.2551892,9.6257838 L13.2770811,9.6737838 C14.0674595,9.9898378 15.0722162,10.6589189 15.4834595,10.9981622 C14.9171892,10.824 14.3090811,10.6731892 13.6742162,10.5408649 L13.6923784,10.5805946 C14.2972432,10.8595135 15.1565405,11.5183784 15.4834595,11.8274595 C15.0216216,11.6855676 14.5318919,11.5587568 14.0241622,11.4439459 L8.30810811,0.86886486" id="Fill-62-path"></path>
        </g>
    </g>
</svg>