<svg xmlns="http://www.w3.org/2000/svg" xmlns:xlink="http://www.w3.org/1999/xlink"><symbol viewBox="0 0 32 32" id="arrow"><path d="M27.875 23.063L16 11.563l-11.813 11.5c-.563.438-1.125.438-1.625 0-.5-.563-.5-1.063 0-1.625l12.688-12.5c.563-.563 1.063-.563 1.5 0l12.688 12.5c.5.563.5 1.063 0 1.625-.563.438-1.063.438-1.563 0"/></symbol><symbol viewBox="0 0 478.4 211.2" id="branding--atd"><path d="M75.8 125.3c-17.5 0-30 13-30 30.1s12.6 30.1 30 30.1c17.6 0 30.1-13 30.1-30.1s-12.6-30.1-30.1-30.1zm0 48.5c-10.3 0-17.6-7.8-17.6-18.4 0-10.6 7.3-18.4 17.6-18.4 10.4 0 17.7 7.8 17.7 18.4 0 10.6-7.4 18.4-17.7 18.4zM179.7 133c-4-5.1-11.2-7.7-18.2-7.7-14.2 0-28.8 10.3-28.8 30 0 19.3 13.2 30.3 27.4 30.3 7.3 0 14.4-2.6 19.8-8.7v7.4h12.4v-79.9h-12.7V133zm-17.5 41.1c-9 0-17-6.3-17-18.6 0-12.7 8.3-18.8 17.1-18.8 8.7 0 17.4 6.3 17.4 18.7 0 12.4-8.8 18.7-17.5 18.7zM335.2 26.8h12.7v57.5h-12.7zM33.1 174.6c-4.5 0-8.1-2.4-8.1-8.8v-27.3h16.1v-11.6H25v-14.7H12.4v14.7H0v11.6h12.4v28c0 13.2 9.1 19.2 19 19.2 4.7 0 9.7-1.4 13.9-3.9l-4.6-9.4c-2.5 1.2-5.1 2.2-7.6 2.2zM341.4 18c5.1 0 9.1-3.9 9.1-9s-4-9-9.1-9-9 3.9-9 9 3.9 9 9 9zM205.8 126.8h12.7v57.5h-12.7zM21.8 64.2h31.5l7.5 20.2h14.4l-31-79.9H31.3L0 84.4h14.4l7.4-20.2zm15.8-42.6L49 52.2H26.3l11.3-30.6zM189.6 85.6c9.6 0 18.4-4 24.8-12.1l-8.1-7.9c-4 5.6-9.9 8.1-16.2 8.1-7.4 0-14.7-3.5-16.7-12.6h41.4c.5-3 .5-5.3.5-7.2 0-19.4-12.2-28.7-26.3-28.7-15 0-29.3 10.3-29.3 29.9 0 19.9 15 30.5 29.9 30.5zm-1.1-48.9c7.3 0 13.9 4.6 14.2 14h-29.6c1-9.4 8-14 15.4-14zM417.6 55.5c0-17.1-12.6-30.1-30.1-30.1s-30 13-30 30.1 12.6 30.1 30 30.1c17.5 0 30.1-13 30.1-30.1zm-47.7-.1c0-10.6 7.3-18.4 17.6-18.4 10.4 0 17.7 7.8 17.7 18.4 0 10.6-7.3 18.4-17.7 18.4-10.3 0-17.6-7.8-17.6-18.4zM300.8 126.8h12.7v57.5h-12.7zM307.1 100c-5.1 0-9 3.9-9 9s3.9 9 9 9 9.1-3.9 9.1-9-4-9-9.1-9zM353.6 174.6c-4.5 0-8.1-2.4-8.1-8.8v-27.3h16.1v-11.6h-16.1v-14.7H333v14.7h-12.4v11.6H333v28c0 13.2 9.1 19.2 19 19.2 4.7 0 9.7-1.4 13.9-3.9l-4.6-9.4c-2.5 1.2-5.2 2.2-7.7 2.2zM430.4 174.1c-2.2 0-4.2-1.3-4.2-5.3v-42h-12.4v7.1c-4-6.4-11.6-8.6-18.3-8.6-14.3 0-28.9 9.9-28.9 30.3 0 19.5 13.6 30 27.5 30 7.7 0 16.1-3.2 21-10 1.6 6.9 7.5 9.9 13.1 9.9 3.8 0 7.7-1.4 10.4-4.5l-3.7-8.4c-1.1.8-3 1.5-4.5 1.5zm-34.4 0c-8.6 0-16.9-6.2-16.9-18.7 0-12.8 8.6-18.7 17-18.7 8.7 0 17.4 6.1 17.4 18.6 0 12.5-8.8 18.8-17.5 18.8zM457.6 25.3c-7 0-14 2.9-18.3 9.7v-8.2h-12.4v57.5h12.7V54.6c0-11.1 6.6-17.1 14.5-17.1 6.5 0 11.6 4.1 11.6 13.8v33.1h12.7V46.8c0-14.4-10.1-21.5-20.8-21.5zM237.9 54.6c0-11.1 6.6-17.1 14.5-17.1 6.5 0 11.6 4.1 11.6 13.8v33.1h12.7V46.8c0-14.4-10.2-21.5-20.8-21.5-7 0-14 2.9-18.3 9.7v-8.2h-12.4v57.5h12.7V54.6zM275.5 133.6c-4.6-5.9-11.2-8.2-18.7-8.2-13.7 0-28.5 9.6-28.5 28.5 0 18.4 13.7 28.8 27.5 28.8 7.5 0 14.8-3 19.8-9.1v9c0 11.5-8.6 17-17.1 17-8.3 0-16.3-5-18.7-14.6l-11.9 4.7c3.9 14.3 17.1 21.6 30.1 21.6 15.2 0 29.9-9.9 29.9-29.8v-54.6h-12.3v6.7zm-17.9 37.5c-8.8 0-17-6.2-17-17.4 0-11.4 8.6-17.1 17.1-17.1 8.7 0 17.5 5.6 17.5 17.1s-8.9 17.4-17.6 17.4zM212.1 100c-5.1 0-9 3.9-9 9s3.9 9 9 9 9.1-3.9 9.1-9-4-9-9.1-9zM314.1 85.6c4.7 0 9.7-1.4 13.9-3.9l-4.6-9.4c-2.5 1.3-5.1 2.2-7.7 2.2-4.5 0-8.1-2.4-8.1-8.8V38.5h16.1V26.8h-16.1V12.1H295v14.7h-12.4v11.6H295v28c.2 13.3 9.3 19.2 19.1 19.2zM157.5 81.8l-4.6-9.4c-2.5 1.3-5.1 2.2-7.6 2.2-4.5 0-8.1-2.4-8.1-8.8V38.5h16.1V26.8h-16.1V12.1h-12.6v14.7H97.5V12.1H84.9v14.7H72.5v11.6h12.4v28c0 13.2 9.1 19.2 19 19.2 4.7 0 9.7-1.4 13.9-3.9l-4.6-9.4c-2.5 1.3-5.1 2.2-7.6 2.2-4.5 0-8.1-2.4-8.1-8.8V38.5h27.1v28c0 13.2 9.1 19.2 19 19.2 4.6-.1 9.6-1.4 13.9-3.9zM466.1 112.9v-7.2h2.7v-1.2h-6.9v1.2h2.8v7.2zM474.2 109.2l-2.8-4.7h-1.5v8.4h1.4V107l2.2 4h1.3l2.2-4v5.9h1.4v-8.4h-1.5zM462.9 174.6c-4.1 0-7.3-2.3-7.3-8.8v-61.3H443v62c0 13.7 8.6 19.2 17.9 19.2 3.8 0 7.7-.9 11.2-2.6l-4.1-9.5c-1.7.6-3.5 1-5.1 1z"/></symbol><symbol viewBox="0 0 983.4 111.2" id="branding--atd-single"><path d="M580.8 25.3c-17.5 0-30 13-30 30.1s12.6 30.1 30 30.1c17.6 0 30.1-13 30.1-30.1s-12.6-30.1-30.1-30.1zm0 48.5c-10.3 0-17.6-7.8-17.6-18.4 0-10.6 7.3-18.4 17.6-18.4 10.4 0 17.7 7.8 17.7 18.4 0 10.6-7.4 18.4-17.7 18.4zM684.7 33c-4-5.1-11.2-7.7-18.2-7.7-14.2 0-28.8 10.3-28.8 30 0 19.3 13.2 30.3 27.4 30.3 7.3 0 14.4-2.6 19.8-8.7v7.4h12.4V4.5h-12.7V33zm-17.5 41.1c-9 0-17-6.3-17-18.6 0-12.7 8.3-18.8 17.1-18.8 8.7 0 17.4 6.3 17.4 18.7 0 12.4-8.8 18.7-17.5 18.7zM335.2 26.8h12.7v57.5h-12.7zM538.1 74.6c-4.5 0-8.1-2.4-8.1-8.8V38.5h16.1V26.8H530V12.1h-12.6v14.7H505v11.6h12.4v28c0 13.2 9.1 19.2 19 19.2 4.7 0 9.7-1.4 13.9-3.9l-4.6-9.4c-2.5 1.3-5.1 2.3-7.6 2.3zM341.4 18c5.1 0 9.1-3.9 9.1-9s-4-9-9.1-9-9 3.9-9 9 3.9 9 9 9zM710.8 26.8h12.7v57.5h-12.7zM21.8 64.2h31.5l7.5 20.2h14.4l-31-79.9H31.3L0 84.4h14.4l7.4-20.2zm15.8-42.6L49 52.2H26.3l11.3-30.6zM189.6 85.6c9.6 0 18.4-4 24.8-12.1l-8.1-7.9c-4 5.6-9.9 8.1-16.2 8.1-7.4 0-14.7-3.5-16.7-12.6h41.4c.5-3 .5-5.3.5-7.2 0-19.4-12.2-28.7-26.3-28.7-15 0-29.3 10.3-29.3 29.9 0 19.9 15 30.5 29.9 30.5zm-1.1-48.9c7.3 0 13.9 4.6 14.2 14h-29.6c1-9.4 8-14 15.4-14zM417.6 55.5c0-17.1-12.6-30.1-30.1-30.1s-30 13-30 30.1 12.6 30.1 30 30.1c17.5 0 30.1-13 30.1-30.1zm-47.7-.1c0-10.6 7.3-18.4 17.6-18.4 10.4 0 17.7 7.8 17.7 18.4 0 10.6-7.3 18.4-17.7 18.4-10.3 0-17.6-7.8-17.6-18.4zM805.8 26.8h12.7v57.5h-12.7zM812.1 0c-5.1 0-9 3.9-9 9s3.9 9 9 9 9.1-3.9 9.1-9-4-9-9.1-9zM858.6 74.6c-4.5 0-8.1-2.4-8.1-8.8V38.5h16.1V26.8h-16.1V12.1H838v14.7h-12.4v11.6H838v28c0 13.2 9.1 19.2 19 19.2 4.7 0 9.7-1.4 13.9-3.9l-4.6-9.4c-2.5 1.3-5.2 2.3-7.7 2.3zM935.4 74.1c-2.2 0-4.2-1.3-4.2-5.3v-42h-12.4v7.1c-4-6.4-11.6-8.6-18.3-8.6-14.3 0-28.9 9.9-28.9 30.3 0 19.5 13.6 30 27.5 30 7.7 0 16.1-3.2 21-10 1.6 6.9 7.5 9.9 13.1 9.9 3.8 0 7.7-1.4 10.4-4.5l-3.7-8.4c-1.1.8-3 1.5-4.5 1.5zm-34.4 0c-8.6 0-16.9-6.2-16.9-18.7 0-12.8 8.6-18.7 17-18.7 8.7 0 17.4 6.1 17.4 18.6 0 12.5-8.8 18.8-17.5 18.8zM457.6 25.3c-7 0-14 2.9-18.3 9.7v-8.2h-12.4v57.5h12.7V54.6c0-11.1 6.6-17.1 14.5-17.1 6.5 0 11.6 4.1 11.6 13.8v33.1h12.7V46.8c0-14.4-10.1-21.5-20.8-21.5zM237.9 54.6c0-11.1 6.6-17.1 14.5-17.1 6.5 0 11.6 4.1 11.6 13.8v33.1h12.7V46.8c0-14.4-10.2-21.5-20.8-21.5-7 0-14 2.9-18.3 9.7v-8.2h-12.4v57.5h12.7V54.6zM780.5 33.6c-4.6-5.9-11.2-8.2-18.7-8.2-13.7 0-28.5 9.6-28.5 28.5 0 18.4 13.7 28.8 27.5 28.8 7.5 0 14.8-3 19.8-9.1v9c0 11.5-8.6 17-17.1 17-8.3 0-16.3-5-18.7-14.6l-11.9 4.7c3.9 14.3 17.1 21.6 30.1 21.6 15.2 0 29.9-9.9 29.9-29.8V26.8h-12.3v6.8zm-17.9 37.5c-8.8 0-17-6.2-17-17.4 0-11.4 8.6-17.1 17.1-17.1 8.7 0 17.5 5.6 17.5 17.1s-8.9 17.4-17.6 17.4zM717.1 0c-5.1 0-9 3.9-9 9s3.9 9 9 9 9.1-3.9 9.1-9-4-9-9.1-9zM314.1 85.6c4.7 0 9.7-1.4 13.9-3.9l-4.6-9.4c-2.5 1.3-5.1 2.2-7.7 2.2-4.5 0-8.1-2.4-8.1-8.8V38.5h16.1V26.8h-16.1V12.1H295v14.7h-12.4v11.6H295v28c.2 13.3 9.3 19.2 19.1 19.2zM157.5 81.8l-4.6-9.4c-2.5 1.3-5.1 2.2-7.6 2.2-4.5 0-8.1-2.4-8.1-8.8V38.5h16.1V26.8h-16.1V12.1h-12.6v14.7H97.5V12.1H84.9v14.7H72.5v11.6h12.4v28c0 13.2 9.1 19.2 19 19.2 4.7 0 9.7-1.4 13.9-3.9l-4.6-9.4c-2.5 1.3-5.1 2.2-7.6 2.2-4.5 0-8.1-2.4-8.1-8.8V38.5h27.1v28c0 13.2 9.1 19.2 19 19.2 4.6-.1 9.6-1.4 13.9-3.9zM971.1 12.9V5.7h2.7V4.5h-6.9v1.2h2.8v7.2zM979.2 9.2l-2.8-4.7h-1.5v8.4h1.4V7l2.2 4h1.3l2.2-4v5.9h1.4V4.5h-1.5zM967.9 74.6c-4.1 0-7.3-2.3-7.3-8.8V4.5H948v62c0 13.7 8.6 19.2 17.9 19.2 3.8 0 7.7-.9 11.2-2.6l-4.1-9.5c-1.7.6-3.5 1-5.1 1z"/></symbol><symbol viewBox="0 0 78.3 85.9" id="branding--e"><path d="M38.5 83.8c1.4 0 2.9 0 4.3-.1 10.6-.7 19.6-4.4 26.8-11.1 4.8-4.4 6.8-8.9 6.7-10.2 0-1.1-4.2-4.6-5.9-4.7-1 0-1.7.8-2.6 1.8-.3.4-.7.8-1.1 1.1C60 66.9 52.2 70.5 44.1 71c-.7 0-1.4.1-2 0-8.4-.3-14.7-5.6-17.5-14.5l-.2-.5h.6c31.3-2.4 41.8-21.6 41.1-33.1C65.2 8 52.7 2.4 42.2 2c-1.3 0-2.6 0-3.9.1-10.7.7-20.3 5.9-27 14.7-6.7 8.8-9.9 20.6-9.2 33.1C3.1 65 13.2 83 38.5 83.8zM23.1 44.1c.7-12.3 4.2-19.5 7.1-23.4 3.2-4.4 7.4-7 11.2-7 2.8 0 4.8 1 6 2.9 2 3.2 1.4 8.5-.2 12.1C41.5 40.9 30 44 23.6 44.7l-.6.1.1-.7z"/></symbol><symbol viewBox="0 0 147.9 42.9" id="branding--logo"><path d="M135.3 29.4h1.5c3.5-.2 6.5-1.5 8.9-3.7 1.6-1.5 2.3-3 2.2-3.4 0-.4-1.4-1.5-2-1.6-.3 0-.6.3-.9.6-.1.1-.2.3-.4.4-2.2 2.1-4.8 3.3-7.5 3.5h-.7c-2.8-.1-4.9-1.9-5.8-4.8l-.1-.2h.2c10.4-.8 13.9-7.2 13.7-11-.3-4.9-4.5-6.8-8-6.9h-1.3c-3.6.2-6.8 2-9 4.9s-3.3 6.9-3.1 11c.5 4.9 3.9 10.9 12.3 11.2zm-5.1-13.3c.2-4.1 1.4-6.5 2.4-7.8 1.1-1.5 2.5-2.3 3.7-2.3.9 0 1.6.3 2 1 .7 1.1.5 2.8-.1 4-1.9 4.1-5.7 5.1-7.8 5.3h-.2v-.2zM60.7 42.9c4.2 0 7.8-.9 10.4-2.5s3.9-3.9 3.9-6.6c0-4.8-4.8-6.1-9.1-6.7l-3.5-.3c-4-.6-5-.8-5-1.7 0-.4.3-.8.9-1.3l.1-.1h.1c.9.2 1.9.3 2.8.4 3 0 5.9-1.1 8-3.2 2.1-2.1 3.3-4.8 3.3-7.8 0-2.8-1.1-5.5-3.1-7.6l-.2-.2.2-.1c.9-.5 2-.7 2.9-.7.5 0 .9.1 1.2.2.1 0 .3.1.4.1.4 0 .8-.2 1-.6.4-.6.5-1.7.1-2.7C74.8.6 73.8 0 72.4 0c-.8 0-1.6.2-2.4.5-1.4.6-2.7 1.5-3.8 2.7l-.1.1-.1-.1c-1.4-.7-2.9-1-4.5-1.1h-.4c-6.2 0-11.3 4.9-11.3 11 0 3.6 1.8 7 4.8 9l.2.2-.2.1c-2.3 1.3-3.6 2.9-3.6 4.4 0 1 .5 2 1.3 2.8l.2.2-.2.1c-3.3 2-4.8 3.9-4.8 6.3.2 4.1 5.2 6.7 13.2 6.7zM61.4 6c2.3.1 4.1 3.2 4.1 7.1s-1.8 7.1-4.1 7.1h-.1c-2.2-.1-4-3.2-4-7.1.1-3.9 1.9-7.1 4.1-7.1zm-4.6 25.4c1.4.3 2.2.4 4 .7l3.6.5c3.9.6 4.5 1.7 4.5 2.7 0 2.1-3.1 3.6-7.5 3.6h-.8c-4.2-.1-6.7-1.4-6.7-3.4.2-1.5 1-2.7 2.9-4.1z"/><path d="M96.3 29.3c.1 0 .2 0 .3-.2.7-.9 1.4-4 1.3-4.3 0-.1-.2-.2-.4-.3-.5-.3-1.2-.8-1.3-1.8 0-1.5-.2-10.5-.2-10.9 0-4.5-1.4-7.3-4.3-8.6-1.5-.7-3.7-1.1-6-1.1-8.8.1-9.7 4-9.7 5.6 0 .4 0 .8.2 1.2.5 1.6 2 2.7 3.7 2.7.4 0 .7-.1 1.1-.2.6-.2 1-.8 1-1.4 0-1.5.3-2.6.9-3.4.6-.8 1.6-1.2 2.8-1.2h.3c2.4.1 3.5 1.5 3.5 4.5v2h-.2c-10.6 1-15.6 4.3-15.6 10.2 0 4.4 3 7.2 7.5 7.2 3.1 0 6.1-1.6 8.4-4.3l.2-.2.1.3c.8 2.6 4.3 4.2 6.4 4.2zM89.6 21c-1.7 1.7-4.2 3.4-6.1 3.4h-.2c-1.8-.1-2.9-1.1-2.9-2.9s1.1-5.1 9.1-6.1h.2l-.1 5.6z"/><path d="M108.8 42.9c8.5 0 14.3-3.7 14.3-9.1 0-4.8-4.8-6.1-9.1-6.7l-3.5-.3c-4-.6-5-.8-5-1.7 0-.4.3-.8.9-1.3l.1-.1h.1c.9.2 1.9.4 2.8.4 3 0 5.9-1.1 8-3.2s3.3-4.8 3.3-7.8c0-2.8-1.1-5.5-3.1-7.6l-.2-.2.2-.1c.9-.5 2-.7 2.9-.7.5 0 .9.1 1.2.2.1 0 .3.1.4.1.4 0 .8-.2 1-.6.4-.6.5-1.7.1-2.7-.3-.9-1.3-1.5-2.7-1.5-.8 0-1.6.2-2.4.5-1.4.6-2.7 1.5-3.8 2.7l-.1.1-.1-.1c-1.4-.7-2.9-1-4.5-1.1h-.4c-6.2 0-11.3 4.9-11.3 11 0 3.6 1.8 7 4.8 9l.2.2-.2.1c-2.3 1.3-3.6 2.9-3.6 4.4 0 1 .5 2 1.3 2.8l.2.2-.2.1c-3.3 2-4.8 3.9-4.8 6.3.2 4.1 5.2 6.7 13.2 6.7zm.7-36.9c2.3.1 4.1 3.2 4.1 7.1s-1.8 7.1-4.1 7.1h-.1c-2.2-.1-4-3.2-4-7.1s1.9-7.1 4.1-7.1zm-4.6 25.4c1.3.3 2.2.4 4 .7l3.6.5c3.9.6 4.5 1.7 4.5 2.7 0 2.1-3.1 3.6-7.5 3.6h-.8c-4.2-.1-6.7-1.4-6.7-3.4.2-1.4 1-2.7 2.9-4.1zM40.8 12.5v14.7c0 .8.6 1.4 1.4 1.4h3.9c.8 0 1.4-.6 1.4-1.4V10.1c0-3.6-1-7.8-5.9-8h-.3c-4.2 0-7.1 2.7-9 4.7l-.2.3-.1-.3c-.2-1.3-.7-3.3-1.2-3.8 0 0-.1 0-.3-.1-1.5-.1-5.5 1.4-5.6 1.9 0 .2 0 .3.1.5.1.3.3.7.4 1.7.2 1.4 0 9.8 0 10.1-3 5.1-7.3 8-11.9 8-3.1 0-5.4-2-6.2-5.2v-.2h.2c10.5-.1 14.4-6.3 14.4-10.2 0-5-4.2-7.4-8.4-7.5H13C5.6 2 0 8.5 0 17.1c0 8.3 6.5 12.1 12.8 12.1 5 0 9-2.1 12.3-6.4l.3-.4v4.7c0 .8.6 1.4 1.4 1.4h3.9c.8 0 1.4-.6 1.4-1.4V12c1.2-1.7 3.7-4.6 5.8-4.6s2.9 1.5 2.9 5.1zM7.1 16.3v-.2c.2-4.1 1.4-6.5 2.4-7.8C10.6 6.8 12 6 13.2 6c.9 0 1.6.3 2 1 .7 1.1.5 2.8-.1 4-1.9 4.1-5.7 5.1-7.8 5.3h-.2z"/></symbol><symbol viewBox="0 0 27.4 22.9" id="menu"><path d="M27.4 19.4v2.3c0 .3-.1.6-.3.8-.2.2-.5.4-.8.4H1.1c-.3 0-.6-.1-.8-.4-.2-.2-.3-.4-.3-.7v-2.3c0-.3.1-.6.3-.8.2-.2.5-.3.8-.3h25.1c.3 0 .6.1.8.3.3.2.4.4.4.7zm0-9.1v2.2c0 .3-.1.6-.3.8-.2.2-.5.4-.8.4H1.1c-.3 0-.6-.1-.8-.4-.2-.1-.3-.4-.3-.7v-2.2c0-.4.1-.7.3-.9.2-.2.5-.4.8-.4h25.1c.3 0 .6.1.8.4.3.2.4.5.4.8zm0-9.2v2.3c0 .3-.1.6-.3.8-.2.2-.5.3-.8.3H1.1c-.3 0-.6-.1-.8-.3C.1 4 0 3.8 0 3.4V1.1C0 .8.1.5.3.3.6.1.8 0 1.1 0h25.1c.3 0 .6.1.8.4.3.2.4.4.4.7z"/></symbol><symbol viewBox="0 0 32 40" id="search"><path d="M31.4 28.6l-7.9-7.9c1.6-2.1 2.5-4.8 2.5-7.7 0-7.2-5.8-13-13-13S0 5.8 0 13s5.8 13 13 13c2.9 0 5.5-.9 7.7-2.5l7.9 7.9c.8.8 2 .8 2.8 0 .8-.8.8-2 0-2.8zM4 13c0-5 4-9 9-9s9 4 9 9-4 9-9 9-9-4-9-9z"/></symbol><symbol viewBox="0 0 32 32" id="social--blog"><path d="M8.75 27.438l1.625-1.625-4.188-4.188-1.625 1.625v1.875h2.313v2.313zm9.375-16.563c0-.25-.125-.438-.438-.438a.474.474 0 0 0-.25.125L7.749 20.25c-.125.125-.125.188-.125.313 0 .25.125.375.375.375.125 0 .25 0 .313-.125L18 11.188c.063-.125.125-.188.125-.313zm-1-3.437l7.438 7.438L9.688 29.689H2.313v-7.375zm12.188 1.687c0 .625-.188 1.188-.625 1.625l-3 2.938-7.375-7.375 2.938-3c.438-.438.938-.625 1.625-.625.625 0 1.125.188 1.625.625l4.188 4.188c.438.5.625 1 .625 1.625z"/></symbol><symbol viewBox="0 0 32 32" id="social--codepen"><path d="M3.875 20.875l10.75 7.188v-6.438l-5.938-3.938zM2.75 18.313L6.188 16 2.75 13.687zm14.625 9.75l10.75-7.188-4.813-3.188-5.938 3.938zM16 19.25L20.875 16 16 12.75 11.125 16zm-7.312-4.937l5.938-3.938V3.937l-10.75 7.188zM25.813 16l3.438 2.313v-4.625zm-2.5-1.687l4.813-3.188-10.75-7.188v6.438zM32 11.125v9.75c0 .5-.188.875-.625 1.125L16.75 31.75c-.25.188-.5.25-.75.25s-.5-.063-.75-.25L.625 22C.187 21.75 0 21.375 0 20.875v-9.75c0-.5.188-.875.625-1.125L15.25.25c.25-.188.5-.25.75-.25s.5.063.75.25L31.375 10c.438.25.625.625.625 1.125z"/></symbol><symbol viewBox="0 0 32 32" id="social--dribbble"><path d="M15.938 1.75C8.063 1.75 1.75 8.188 1.75 15.938c0 7.875 6.313 14.313 14.188 14.313s14.313-6.438 14.313-14.313c0-7.75-6.438-14.188-14.313-14.188zm11.937 14.188c-1.563-.313-3.063-.563-4.563-.563-1.25 0-2.563.125-3.875.438-.25-.625-.5-1.313-.75-1.938 2.438-1.125 4.875-2.75 7.063-4.563 1.313 2 2.125 4.313 2.125 6.625zM15.938 4.125c3.188 0 6.063 1.25 8.25 3.313-2 1.813-4.188 3.188-6.563 4.25a45.56 45.56 0 0 0-4.75-7.125c1.063-.25 2-.438 3.063-.438zM10.5 5.438c1.938 2.313 3.625 4.688 4.938 7.125-3.125 1.125-6.375 1.625-9.625 1.625H4.25c.563-3.75 2.938-7 6.25-8.75zM4.125 16.563c.625 0 1.125.125 1.688.125 3.563 0 7.188-.75 10.688-1.938.188.5.438 1.125.688 1.625-4 1.438-7.563 4.063-9.875 7.625a11.36 11.36 0 0 1-3.188-7.438zm11.813 11.312c-2.438 0-4.813-.813-6.875-2.188 2.188-3.313 5.25-5.813 8.938-7 .875 2.688 1.438 5.563 1.75 8.563-1.25.438-2.5.625-3.813.625zM22 26.188c-.375-2.813-.875-5.5-1.75-8.125a17.302 17.302 0 0 1 3.063-.25c1.375 0 2.813.188 4.25.5-.688 3.313-2.688 6.25-5.563 7.875z"/></symbol><symbol viewBox="0 0 32 32" id="social--facebook"><path d="M27.6 3H4.4C3.6 3 3 3.6 3 4.4v23.1c0 .9.6 1.5 1.4 1.5h12.5V18.9h-3.4V15h3.4v-2.9c0-3.4 2.1-5.2 5-5.2 1.4 0 2.7.1 3 .2v3.5h-2.1c-1.6 0-1.9.8-1.9 1.9V15h3.9l-.5 3.9h-3.4V29h6.6c.8 0 1.4-.6 1.4-1.4V4.4c.1-.8-.5-1.4-1.3-1.4z"/></symbol><symbol viewBox="0 0 32 32" id="social--github"><path d="M16 2c7.75 0 14 6.438 14 14.375 0 6.313-4 11.75-9.563 13.625h-.25c-.5 0-.75-.438-.75-.75 0-.5.063-1.938.063-3.875 0-1.313-.5-2.25-1-2.688 3.125-.375 6.438-1.563 6.438-7.063 0-1.563-.563-2.875-1.438-3.875.125-.375.625-1.813-.125-3.813h-.313c-.5 0-1.688.188-3.563 1.5-1.125-.313-2.313-.5-3.5-.5s-2.375.188-3.5.5c-1.875-1.313-3.063-1.5-3.563-1.5h-.313c-.75 2-.25 3.438-.125 3.813-.875 1-1.438 2.313-1.438 3.875 0 5.5 3.25 6.688 6.375 7.063-.375.375-.75 1-.875 1.938-.375.188-1 .375-1.625.375-.813 0-1.75-.313-2.438-1.563 0 0-.813-1.375-2.188-1.5-.125 0-1.313 0-.063.875 0 0 .938.5 1.563 2.125 0 0 .625 2.063 3.313 2.063.438 0 .875 0 1.375-.125v2.438c0 .313-.188.688-.688.688h-.25c-5.563-1.875-9.563-7.25-9.563-13.625 0-7.938 6.25-14.375 14-14.375z"/></symbol><symbol viewBox="0 0 32 32" id="social--instagram"><path d="M16 4.8c3.6 0 4.1 0 5.5.1 1.3.1 2.1.3 2.5.5.6.2 1.1.5 1.6 1s.8.9 1 1.6c.2.5.4 1.2.5 2.5.1 1.4.1 1.9.1 5.5s0 4.1-.1 5.5c-.1 1.3-.3 2.1-.5 2.5-.2.6-.5 1.1-1 1.6s-.9.8-1.6 1c-.5.2-1.2.4-2.5.5-1.4.1-1.9.1-5.5.1s-4.1 0-5.5-.1c-1.3-.1-2.1-.3-2.5-.5-.6-.2-1.1-.5-1.6-1s-.8-.9-1-1.6c-.2-.5-.4-1.2-.5-2.5-.1-1.4-.1-1.9-.1-5.5s0-4.1.1-5.5c.1-1.3.3-2.1.5-2.5.2-.6.5-1.1 1-1.6s.9-.8 1.6-1c.5-.2 1.2-.4 2.5-.5 1.4-.1 1.9-.1 5.5-.1m0-2.5c-3.7 0-4.2 0-5.6.1-1.5.1-2.5.3-3.3.7-.9.3-1.7.8-2.5 1.5-.7.8-1.2 1.6-1.5 2.5-.3.9-.6 1.9-.6 3.3-.1 1.5-.1 1.9-.1 5.6 0 3.7 0 4.2.1 5.6.1 1.5.3 2.4.6 3.3.3.9.8 1.7 1.6 2.4.8.8 1.5 1.2 2.4 1.6.9.3 1.9.6 3.3.6 1.5.1 1.9.1 5.6.1s4.2 0 5.6-.1c1.5-.1 2.4-.3 3.3-.6.9-.3 1.7-.8 2.4-1.6.8-.8 1.2-1.5 1.6-2.4.3-.9.6-1.9.6-3.3.1-1.5.1-1.9.1-5.6s0-4.2-.1-5.6c-.1-1.5-.3-2.4-.6-3.3-.3-.9-.8-1.7-1.6-2.4-.8-.8-1.5-1.2-2.4-1.6-.9-.3-1.9-.6-3.3-.6-1.4-.1-1.9-.2-5.6-.2z"/><path d="M16 9c-3.9 0-7 3.1-7 7s3.1 7 7 7 7-3.1 7-7-3.1-7-7-7zm0 11.5c-2.5 0-4.6-2-4.6-4.5s2-4.6 4.6-4.6c2.5 0 4.5 2 4.5 4.6 0 2.5-2 4.5-4.5 4.5z"/><circle cx="23.3" cy="8.7" r="1.6"/></symbol><symbol viewBox="0 0 32 32" id="social--pinterest"><path d="M16 2c7.75 0 14 6.25 14 14s-6.25 14-14 14c-1.375 0-2.75-.188-4-.563.5-.875 1.125-1.938 1.438-3 .188-.625 1-3.875 1-3.875.5.938 1.875 1.75 3.375 1.75 4.5 0 7.563-4.063 7.563-9.563 0-4.125-3.5-8.063-8.875-8.063-6.625 0-10 4.75-10 8.75 0 2.438.938 4.563 2.875 5.375.313.125.625 0 .75-.375.063-.25.188-.875.25-1.125.125-.375.063-.438-.188-.75-.563-.688-.938-1.5-.938-2.75 0-3.563 2.625-6.688 6.875-6.688 3.75 0 5.875 2.25 5.875 5.313 0 4.063-1.813 7.438-4.438 7.438-1.5 0-2.625-1.188-2.25-2.688.438-1.75 1.25-3.688 1.25-4.938 0-1.125-.625-2.125-1.875-2.125-1.5 0-2.688 1.563-2.688 3.625 0 1.313.438 2.25.438 2.25s-1.563 6.5-1.813 7.625a11.152 11.152 0 0 0-.25 3.188c-4.938-2.188-8.375-7.063-8.375-12.813 0-7.75 6.25-14 14-14z"/></symbol><symbol viewBox="0 0 32 32" id="social--playstation"><path d="M25 12.688c0 .688 0 1.375-.125 2.063-.125.625-.313 1.25-.625 1.75-.25.438-.625.813-1.125 1.063-.438.25-1 .375-1.5.375-.813 0-1.938-.25-2.625-.563V9.063C19 8.5 18.562 8 18.062 8h-.063c-.563 0-1 .5-1 1.063v18.938l-5-1.625V4.001s1.75.25 4.688 1.125 4.188 1.313 5.25 1.938c.5.313.938.688 1.313 1.063.438.438.813.875 1.063 1.438.5 1 .625 2.063.688 3.125zM5.438 22.375c-.25.125-.5.188-.688.375-.063.063-.188.188-.125.313s.25.25.375.313c.375.125.813.188 1.188.188.438 0 .938 0 1.375-.125.313-.063.563-.188.875-.313 1.875-.625 2.563-.75 2.563-.75v2.625c-.875.125-2.25.25-3.125.25-1.875.063-3.75-.25-5.5-.813-.563-.188-1.188-.375-1.688-.75-.25-.188-.5-.5-.625-.813-.125-.25-.063-.563.063-.813s.313-.5.563-.688c.563-.375 1.125-.625 1.75-.875.5-.25 1.063-.438 1.625-.625 2.188-.75 6.938-2.313 6.938-2.313v2.938s-3.875 1.25-5.563 1.875zM32 21.625c0 .313-.125.563-.313.813-.375.438-.875.688-1.375.938s-1.063.5-1.625.688a1816.085 1816.085 0 0 1-10.688 3.688v-3s5.75-1.875 8.313-2.75c.375-.125.688-.25 1-.5.125-.125.25-.188.188-.375-.063-.125-.25-.25-.375-.313a3.928 3.928 0 0 0-1.188-.188c-.625 0-1.25.125-1.875.313-1.813.625-6.063 2-6.063 2v-3.063s2.813-.875 4.188-1c.5-.063 1.438-.063 1.938-.063 1.625 0 3.375.188 4.938.688.313.125.5.188.875.313.563.188 1.125.5 1.563.875.25.25.5.563.5.938z"/></symbol><symbol viewBox="0 0 32 32" id="social--spotify"><path d="M22.438 21.625c0-.375-.188-.688-.563-.938-2.313-1.375-4.938-2.063-8-2.063-1.563 0-3.25.25-5.125.625-.5.125-.75.438-.75.938 0 .25.125.438.25.625.188.125.375.25.625.25.063 0 .313-.063.688-.125 1.563-.375 3-.5 4.313-.5 2.688 0 5.063.625 7.125 1.813.188.125.375.188.563.188.25 0 .438-.063.625-.188.125-.188.25-.375.25-.625zm1.687-3.875c0-.438-.188-.813-.625-1.063-2.813-1.688-6.063-2.5-9.813-2.5-1.813 0-3.625.25-5.375.75-.563.125-.875.5-.875 1.125 0 .313.125.563.313.75s.5.313.75.313c.125 0 .313-.063.688-.125 1.438-.438 2.938-.625 4.5-.625 3.313 0 6.188.75 8.688 2.25.313.125.5.188.688.188.313 0 .563-.063.75-.313.188-.188.313-.438.313-.75zm1.938-4.437c0-.563-.25-.938-.75-1.25-1.5-.813-3.188-1.5-5.188-1.938S16.062 9.437 14 9.437c-2.438 0-4.625.313-6.5.875-.313.063-.5.188-.688.438-.188.188-.313.5-.313.875s.125.688.375.938.563.375.938.375c.125 0 .375-.063.688-.188 1.625-.438 3.438-.625 5.5-.625 1.875 0 3.75.188 5.5.563 1.813.438 3.313 1 4.563 1.75.25.125.5.188.688.188.375 0 .688-.125.938-.375s.375-.563.375-.938zM29.688 16c0 2.5-.563 4.813-1.813 6.875-1.25 2.125-2.875 3.75-5 5-2.063 1.25-4.375 1.813-6.875 1.813s-4.813-.563-6.875-1.813c-2.125-1.25-3.75-2.875-5-5C2.875 20.812 2.312 18.5 2.312 16s.563-4.813 1.813-6.875c1.25-2.125 2.875-3.75 5-5C11.188 2.875 13.5 2.312 16 2.312s4.813.563 6.875 1.813c2.125 1.25 3.75 2.875 5 5 1.25 2.063 1.813 4.375 1.813 6.875z"/></symbol><symbol viewBox="0 0 32 32" id="social--steam"><path d="M24.438 11.563c0-.938-.313-1.75-1-2.438s-1.5-1-2.438-1c-.938 0-1.75.313-2.438 1s-1 1.5-1 2.438c0 .938.313 1.75 1 2.438s1.5 1 2.438 1c.938 0 1.75-.313 2.438-1s1-1.5 1-2.438zm-10.875 10.5c0 1-.313 1.813-1 2.5s-1.563 1-2.5 1c-.688 0-1.313-.125-1.875-.5-.563-.313-1-.813-1.25-1.375.563.25 1.188.5 1.75.75.688.25 1.375.25 2.125-.063.688-.313 1.188-.813 1.5-1.563.313-.688.313-1.375 0-2.125-.313-.688-.813-1.188-1.563-1.5l-1.438-.563c.25-.063.5-.125.75-.125.938 0 1.813.375 2.5 1.063s1 1.5 1 2.5zM29.688 7.438v17.125c0 1.438-.5 2.625-1.5 3.625s-2.188 1.5-3.625 1.5H7.438c-1.438 0-2.625-.5-3.625-1.5s-1.5-2.188-1.5-3.625v-2.75l3.063 1.25c.25 1.125.75 2 1.625 2.75.875.688 1.875 1.063 3.063 1.063s2.313-.438 3.188-1.25c.938-.875 1.438-1.875 1.563-3.125l6.188-4.5c1.75 0 3.313-.625 4.563-1.875s1.875-2.75 1.875-4.563c0-1.75-.625-3.25-1.875-4.563-1.25-1.25-2.813-1.875-4.563-1.875S17.69 5.75 16.44 7c-1.25 1.25-1.875 2.75-1.875 4.5l-4 5.75h-.5c-.938 0-1.75.25-2.5.688l-5.25-2.125V7.438c0-1.438.5-2.625 1.5-3.625s2.188-1.5 3.625-1.5h17.125c1.438 0 2.625.5 3.625 1.5s1.5 2.188 1.5 3.625zm-4.375 4.125c0 1.188-.438 2.25-1.25 3.063-.875.875-1.875 1.25-3.063 1.25s-2.25-.375-3.063-1.25c-.813-.813-1.25-1.875-1.25-3.063s.438-2.188 1.25-3C18.75 7.688 19.812 7.25 21 7.25s2.188.438 3.063 1.25c.813.875 1.25 1.875 1.25 3.063z"/></symbol><symbol viewBox="0 0 32 32" id="social--twitter"><path d="M10.8 27.4c10.6 0 16.3-8.8 16.3-16.3v-.7c1.1-.8 2.1-1.8 2.9-3-1 .5-2.1.8-3.3.9 1.2-.7 2.1-1.8 2.5-3.2-1.1.7-2.3 1.1-3.6 1.4-1-1.1-2.5-1.8-4.2-1.8-3.2 0-5.7 2.6-5.7 5.7 0 .5.1.9.1 1.3-4.8-.2-9-2.5-11.8-6-.5.8-.8 1.8-.8 2.9 0 2 1 3.8 2.6 4.8-.9 0-1.8-.3-2.6-.7v.1c0 2.8 2 5.1 4.6 5.6-.5.1-1 .2-1.5.2-.4 0-.7 0-1.1-.1.7 2.3 2.9 3.9 5.4 4C8.6 24 6.2 25 3.5 25c-.5 0-.9 0-1.4-.1 2.4 1.5 5.5 2.5 8.7 2.5"/></symbol><symbol viewBox="0 0 32 32" id="social--xbox"><path d="M7.938 15.5c-3.063 4.5-3.125 8.688-3.125 8.938C3.063 22.063 2 19.188 2 16c0-4.188 1.875-8 4.813-10.563l.188.063c3.188 1.125 5.813 4.25 5.813 4.25s-2.375 2.063-4.875 5.75zM30 16c0 3.188-1.063 6.063-2.813 8.438 0-.25-.063-4.438-3.125-8.938-2.5-3.688-4.875-5.75-4.875-5.75S21.812 6.625 25 5.5l.188-.063A14.042 14.042 0 0 1 30.001 16zM12.563 5.063C10.25 4 8.5 4.313 8.063 4.438c2.25-1.563 5-2.438 7.938-2.438s5.688.875 7.938 2.438c-.438-.125-2.188-.375-4.5.625-1.813.813-3.438 2.188-3.438 2.188s-1.625-1.375-3.438-2.188zm9.875 13.25c2.5 3.063 3.375 5.313 3.875 6.75l.125.313c-2.563 2.875-6.313 4.625-10.438 4.625s-7.875-1.75-10.438-4.625l.063-.313c.5-1.438 1.438-3.688 3.938-6.75 2.875-3.563 6.438-5.875 6.438-5.875s3.563 2.313 6.438 5.875z"/></symbol></svg>